HIERARCHY
ROOT Hips
{
    OFFSET 0.000 93.020 0.000
    CHANNELS 6 Xposition Yposition Zposition Yrotation Xrotation Zrotation
    JOINT RightUpLeg
    {
        OFFSET -9.250 -1.590 0.000
        CHANNELS 3 Yrotation Xrotation Zrotation
        JOINT RightLeg
        {
            OFFSET 0.000 -41.870 0.000
            CHANNELS 3 Yrotation Xrotation Zrotation
            JOINT RightFoot
            {
                OFFSET 0.000 -41.870 0.000
                CHANNELS 3 Yrotation Xrotation Zrotation
                End Site
                {
                    OFFSET 0.000 -7.690 17.500
                }
            }
        }
    }
    JOINT LeftUpLeg
    {
        OFFSET 9.250 -1.590 0.000
        CHANNELS 3 Yrotation Xrotation Zrotation
        JOINT LeftLeg
        {
            OFFSET 0.000 -41.870 0.000
            CHANNELS 3 Yrotation Xrotation Zrotation
            JOINT LeftFoot
            {
                OFFSET 0.000 -41.870 0.000
                CHANNELS 3 Yrotation Xrotation Zrotation
                End Site
                {
                    OFFSET 0.000 -7.690 17.500
                }
            }
        }
    }
    JOINT Spine
    {
        OFFSET 0.000 14.307 0.000
        CHANNELS 3 Yrotation Xrotation Zrotation
        JOINT Spine1
        {
            OFFSET 0.000 9.718 0.000
            CHANNELS 3 Yrotation Xrotation Zrotation
            JOINT Spine2
            {
                OFFSET 0.000 10.120 0.000
                CHANNELS 3 Yrotation Xrotation Zrotation
                JOINT Spine3
                {
                    OFFSET 0.000 9.718 0.000
                    CHANNELS 3 Yrotation Xrotation Zrotation
                    JOINT Neck
                    {
                        OFFSET 0.000 10.387 0.000
                        CHANNELS 3 Yrotation Xrotation Zrotation
                        JOINT Head
                        {
                            OFFSET 0.000 9.470 0.000
                            CHANNELS 3 Yrotation Xrotation Zrotation
                            End Site
                            {
                                OFFSET 0.000 15.950 0.000
                            }
                        }
                    }
                    JOINT RightShoulder
                    {
                        OFFSET -3.200 6.925 0.000
                        CHANNELS 3 Yrotation Xrotation Zrotation
                        JOINT RightArm
                        {
                            OFFSET -12.800 0.000 0.000
                            CHANNELS 3 Yrotation Xrotation Zrotation
                            JOINT RightForeArm
                            {
                                OFFSET -26.500 0.000 0.000
                                CHANNELS 3 Yrotation Xrotation Zrotation
                                JOINT RightHand
                                {
                                    OFFSET -26.000 0.000 0.000
                                    CHANNELS 3 Yrotation Xrotation Zrotation
                                    JOINT RightHandThumb1
                                    {
                                        OFFSET -2.489 0.190 3.121
                                        CHANNELS 3 Yrotation Xrotation Zrotation
                                        JOINT RightHandThumb2
                                        {
                                            OFFSET -3.683 0.000 0.000
                                            CHANNELS 3 Yrotation Xrotation Zrotation
                                            JOINT RightHandThumb3
                                            {
                                                OFFSET -2.558 0.000 0.000
                                                CHANNELS 3 Yrotation Xrotation Zrotation
                                                End Site
                                                {
                                                    OFFSET -2.194 0.000 0.000
                                                }
                                            }
                                        }
                                    }
                                    JOINT RightInHandIndex
                                    {
                                        OFFSET -3.224 0.508 1.978
                                        CHANNELS 3 Yrotation Xrotation Zrotation
                                        JOINT RightHandIndex1
                                        {
                                            OFFSET -5.217 -0.091 0.999
                                            CHANNELS 3 Yrotation Xrotation Zrotation
                                            JOINT RightHandIndex2
                                            {
                                                OFFSET -3.619 0.000 0.000
                                                CHANNELS 3 Yrotation Xrotation Zrotation
                                                JOINT RightHandIndex3
                                                {
                                                    OFFSET -2.052 0.000 0.000
                                                    CHANNELS 3 Yrotation Xrotation Zrotation
                                                    End Site
                                                    {
                                                        OFFSET -1.805 0.000 0.000
                                                    }
                                                }
                                            }
                                        }
                                    }
                                    JOINT RightInHandMiddle
                                    {
                                        OFFSET -3.382 0.517 0.757
                                        CHANNELS 3 Yrotation Xrotation Zrotation
                                        JOINT RightHandMiddle1
                                        {
                                            OFFSET -5.174 -0.084 0.314
                                            CHANNELS 3 Yrotation Xrotation Zrotation
                                            JOINT RightHandMiddle2
                                            {
                                                OFFSET -3.949 0.000 0.000
                                                CHANNELS 3 Yrotation Xrotation Zrotation
                                                JOINT RightHandMiddle3
                                                {
                                                    OFFSET -2.476 0.000 0.000
                                                    CHANNELS 3 Yrotation Xrotation Zrotation
                                                    End Site
                                                    {
                                                        OFFSET -1.975 0.000 0.000
                                                    }
                                                }
                                            }
                                        }
                                    }
                                    JOINT RightInHandRing
                                    {
                                        OFFSET -3.365 0.538 -0.129
                                        CHANNELS 3 Yrotation Xrotation Zrotation
                                        JOINT RightHandRing1
                                        {
                                            OFFSET -4.635 -0.022 -0.479
                                            CHANNELS 3 Yrotation Xrotation Zrotation
                                            JOINT RightHandRing2
                                            {
                                                OFFSET -3.442 0.000 0.000
                                                CHANNELS 3 Yrotation Xrotation Zrotation
                                                JOINT RightHandRing3
                                                {
                                                    OFFSET -2.388 0.000 0.000
                                                    CHANNELS 3 Yrotation Xrotation Zrotation
                                                    End Site
                                                    {
                                                        OFFSET -1.857 0.000 0.000
                                                    }
                                                }
                                            }
                                        }
                                    }
                                    JOINT RightInHandPinky
                                    {
                                        OFFSET -3.161 0.469 -1.202
                                        CHANNELS 3 Yrotation Xrotation Zrotation
                                        JOINT RightHandPinky1
                                        {
                                            OFFSET -4.141 -0.022 -1.091
                                            CHANNELS 3 Yrotation Xrotation Zrotation
                                            JOINT RightHandPinky2
                                            {
                                                OFFSET -2.757 0.000 0.000
                                                CHANNELS 3 Yrotation Xrotation Zrotation
                                                JOINT RightHandPinky3
                                                {
                                                    OFFSET -1.742 0.000 0.000
                                                    CHANNELS 3 Yrotation Xrotation Zrotation
                                                    End Site
                                                    {
                                                        OFFSET -1.645 0.000 0.000
                                                    }
                                                }
                                            }
                                        }
                                    }
                                }
                            }
                        }
                    }
                    JOINT LeftShoulder
                    {
                        OFFSET 3.200 6.925 0.000
                        CHANNELS 3 Yrotation Xrotation Zrotation
                        JOINT LeftArm
                        {
                            OFFSET 12.800 0.000 0.000
                            CHANNELS 3 Yrotation Xrotation Zrotation
                            JOINT LeftForeArm
                            {
                                OFFSET 26.500 0.000 0.000
                                CHANNELS 3 Yrotation Xrotation Zrotation
                                JOINT LeftHand
                                {
                                    OFFSET 26.000 0.000 0.000
                                    CHANNELS 3 Yrotation Xrotation Zrotation
                                    JOINT LeftHandThumb1
                                    {
                                        OFFSET 2.489 0.190 3.121
                                        CHANNELS 3 Yrotation Xrotation Zrotation
                                        JOINT LeftHandThumb2
                                        {
                                            OFFSET 3.683 0.000 0.000
                                            CHANNELS 3 Yrotation Xrotation Zrotation
                                            JOINT LeftHandThumb3
                                            {
                                                OFFSET 2.558 0.000 0.000
                                                CHANNELS 3 Yrotation Xrotation Zrotation
                                                End Site
                                                {
                                                    OFFSET 2.194 0.000 0.000
                                                }
                                            }
                                        }
                                    }
                                    JOINT LeftInHandIndex
                                    {
                                        OFFSET 3.224 0.508 1.978
                                        CHANNELS 3 Yrotation Xrotation Zrotation
                                        JOINT LeftHandIndex1
                                        {
                                            OFFSET 5.217 -0.091 0.999
                                            CHANNELS 3 Yrotation Xrotation Zrotation
                                            JOINT LeftHandIndex2
                                            {
                                                OFFSET 3.619 0.000 0.000
                                                CHANNELS 3 Yrotation Xrotation Zrotation
                                                JOINT LeftHandIndex3
                                                {
                                                    OFFSET 2.052 0.000 0.000
                                                    CHANNELS 3 Yrotation Xrotation Zrotation
                                                    End Site
                                                    {
                                                        OFFSET 1.805 0.000 0.000
                                                    }
                                                }
                                            }
                                        }
                                    }
                                    JOINT LeftInHandMiddle
                                    {
                                        OFFSET 3.382 0.517 0.757
                                        CHANNELS 3 Yrotation Xrotation Zrotation
                                        JOINT LeftHandMiddle1
                                        {
                                            OFFSET 5.174 -0.084 0.314
                                            CHANNELS 3 Yrotation Xrotation Zrotation
                                            JOINT LeftHandMiddle2
                                            {
                                                OFFSET 3.949 0.000 0.000
                                                CHANNELS 3 Yrotation Xrotation Zrotation
                                                JOINT LeftHandMiddle3
                                                {
                                                    OFFSET 2.476 0.000 0.000
                                                    CHANNELS 3 Yrotation Xrotation Zrotation
                                                    End Site
                                                    {
                                                        OFFSET 1.975 0.000 0.000
                                                    }
                                                }
                                            }
                                        }
                                    }
                                    JOINT LeftInHandRing
                                    {
                                        OFFSET 3.365 0.538 -0.129
                                        CHANNELS 3 Yrotation Xrotation Zrotation
                                        JOINT LeftHandRing1
                                        {
                                            OFFSET 4.635 -0.022 -0.479
                                            CHANNELS 3 Yrotation Xrotation Zrotation
                                            JOINT LeftHandRing2
                                            {
                                                OFFSET 3.442 0.000 0.000
                                                CHANNELS 3 Yrotation Xrotation Zrotation
                                                JOINT LeftHandRing3
                                                {
                                                    OFFSET 2.388 0.000 0.000
                                                    CHANNELS 3 Yrotation Xrotation Zrotation
                                                    End Site
                                                    {
                                                        OFFSET 1.857 0.000 0.000
                                                    }
                                                }
                                            }
                                        }
                                    }
                                    JOINT LeftInHandPinky
                                    {
                                        OFFSET 3.161 0.469 -1.202
                                        CHANNELS 3 Yrotation Xrotation Zrotation
                                        JOINT LeftHandPinky1
                                        {
                                            OFFSET 4.141 -0.022 -1.091
                                            CHANNELS 3 Yrotation Xrotation Zrotation
                                            JOINT LeftHandPinky2
                                            {
                                                OFFSET 2.757 0.000 0.000
                                                CHANNELS 3 Yrotation Xrotation Zrotation
                                                JOINT LeftHandPinky3
                                                {
                                                    OFFSET 1.742 0.000 0.000
                                                    CHANNELS 3 Yrotation Xrotation Zrotation
                                                    End Site
                                                    {
                                                        OFFSET 1.645 0.000 0.000
                                                    }
                                                }
                                            }
                                        }
                                    }
                                }
                            }
                        }
                    }
                }
            }
        }
    }
}
MOTION

Frames: 4
Frame Time: 0.008
0.000000 93.019646 0.000000 8.515331 0.000000 0.000000 0.000000 0.000000 0.000000 0.000000 0.000000 0.000000 0.000000 0.000000 0.000000 0.000000 0.000000 0.000000 0.000000 0.000000 0.000000 0.000000 0.000000 0.000000 0.000000 -0.000000 0.000000 0.000000 -0.000000 0.000000 0.000000 -0.000000 0.000000 0.000001 0.000000 -0.000000 -0.000001 -0.000000 0.000000 0.000000 -0.000000 0.000000 -0.000001 -0.000000 0.000000 -0.000004 0.000007 66.801407 -0.000000 -0.000000 0.000000 -0.000000 -0.000000 0.000000 21.860001 -0.000000 30.000000 -10.000000 -0.000000 0.000000 -10.000000 -0.000000 0.000000 0.000000 -0.000000 0.000000 2.550000 -0.000000 20.000000 0.000000 -0.000000 24.000000 0.000000 -0.000000 20.000000 0.000000 -0.000000 0.000000 0.000000 -0.000000 20.000000 0.000000 -0.000000 24.000000 0.000000 -0.000000 20.000000 0.000000 -0.000000 0.000000 -3.000000 -0.000000 20.000000 0.000000 -0.000000 24.000000 0.000000 -0.000000 20.000000 0.000000 -0.000000 0.000000 -8.830000 -0.000000 20.000000 0.000000 -0.000000 24.000000 0.000000 -0.000000 20.000000 -0.000001 -0.000000 0.000000 9.252325 4.116785 -57.480892 -77.147560 9.563497 9.436847 5.265718 6.489431 -2.262380 -50.389042 -0.000000 -28.648651 -9.533134 -0.000000 15.725430 59.582371 -0.000000 0.000000 0.000000 -0.000000 0.000000 -15.000000 -0.000000 -28.366665 0.000000 -0.000000 -28.366665 0.000000 -0.000000 -28.366665 0.000000 -0.000000 0.000000 0.000000 -0.000000 -9.716495 0.000000 -0.000000 -9.716495 0.000000 -0.000000 -9.716495 0.000000 -0.000000 0.000000 15.000000 -0.000000 -14.276692 0.000000 -0.000000 -14.276692 0.000000 -0.000000 -14.276692 0.000000 -0.000000 0.000000 25.000000 -0.000000 -16.609112 0.000000 -0.000000 -16.609112 0.000000 -0.000000 -16.609112 
0.000000 93.019646 0.000000 8.515331 0.000000 0.000000 0.000000 0.000000 0.000000 0.000000 0.000000 0.000000 0.000000 0.000000 0.000000 0.000000 0.000000 0.000000 0.000000 0.000000 0.000000 0.000000 0.000000 0.000000 0.000000 -0.000000 0.000000 0.000000 -0.000000 0.000000 0.000000 -0.000000 0.000000 0.000001 0.000000 -0.000000 -0.000001 -0.000000 0.000000 0.000000 -0.000000 0.000000 -0.000001 -0.000000 0.000000 -0.000004 0.000007 66.801407 -0.000000 -0.000000 0.000000 -0.000000 -0.000000 0.000000 21.860001 -0.000000 30.000000 -10.000000 -0.000000 0.000000 -10.000000 -0.000000 0.000000 0.000000 -0.000000 0.000000 2.550000 -0.000000 20.000000 0.000000 -0.000000 24.000000 0.000000 -0.000000 20.000000 0.000000 -0.000000 0.000000 0.000000 -0.000000 20.000000 0.000000 -0.000000 24.000000 0.000000 -0.000000 20.000000 0.000000 -0.000000 0.000000 -3.000000 -0.000000 20.000000 0.000000 -0.000000 24.000000 0.000000 -0.000000 20.000000 0.000000 -0.000000 0.000000 -8.830000 -0.000000 20.000000 0.000000 -0.000000 24.000000 0.000000 -0.000000 20.000000 -0.000001 -0.000000 0.000000 9.252325 4.116785 -57.480892 -77.147560 9.563497 9.436847 5.265718 6.489431 -2.262380 -50.389042 -0.000000 -28.648651 -9.533134 -0.000000 15.725430 59.582371 -0.000000 0.000000 0.000000 -0.000000 0.000000 -15.000000 -0.000000 -28.366665 0.000000 -0.000000 -28.366665 0.000000 -0.000000 -28.366665 0.000000 -0.000000 0.000000 0.000000 -0.000000 -9.716495 0.000000 -0.000000 -9.716495 0.000000 -0.000000 -9.716495 0.000000 -0.000000 0.000000 15.000000 -0.000000 -14.276692 0.000000 -0.000000 -14.276692 0.000000 -0.000000 -14.276692 0.000000 -0.000000 0.000000 25.000000 -0.000000 -16.601908 0.000000 -0.000000 -16.601908 0.000000 -0.000000 -16.601908 
0.000000 93.019646 0.000000 8.515331 0.000000 0.000000 0.000000 0.000000 0.000000 0.000000 0.000000 0.000000 0.000000 0.000000 0.000000 0.000000 0.000000 0.000000 0.000000 0.000000 0.000000 0.000000 0.000000 0.000000 0.000000 -0.000000 0.000000 0.000000 -0.000000 0.000000 0.000000 -0.000000 0.000000 0.000001 0.000000 -0.000000 -0.000001 -0.000000 0.000000 0.000000 -0.000000 0.000000 -0.000001 -0.000000 0.000000 -0.000004 0.000007 66.801407 -0.000000 -0.000000 0.000000 -0.000000 -0.000000 0.000000 21.860001 -0.000000 30.000000 -10.000000 -0.000000 0.000000 -10.000000 -0.000000 0.000000 0.000000 -0.000000 0.000000 2.550000 -0.000000 20.000000 0.000000 -0.000000 24.000000 0.000000 -0.000000 20.000000 0.000000 -0.000000 0.000000 0.000000 -0.000000 20.000000 0.000000 -0.000000 24.000000 0.000000 -0.000000 20.000000 0.000000 -0.000000 0.000000 -3.000000 -0.000000 20.000000 0.000000 -0.000000 24.000000 0.000000 -0.000000 20.000000 0.000000 -0.000000 0.000000 -8.830000 -0.000000 20.000000 0.000000 -0.000000 24.000000 0.000000 -0.000000 20.000000 -0.000001 -0.000000 0.000000 9.292641 4.092134 -57.480789 -77.151016 9.568914 9.405928 5.277911 6.498730 -2.242987 -50.389748 -0.000000 -28.656649 -9.534548 -0.000000 15.717422 59.624519 -0.000000 0.000000 0.000000 -0.000000 0.000000 -15.000000 -0.000000 -28.364159 0.000000 -0.000000 -28.364159 0.000000 -0.000000 -28.364159 0.000000 -0.000000 0.000000 0.000000 -0.000000 -9.712203 0.000000 -0.000000 -9.712203 0.000000 -0.000000 -9.712203 0.000000 -0.000000 0.000000 15.000000 -0.000000 -14.269601 0.000000 -0.000000 -14.269601 0.000000 -0.000000 -14.269601 0.000000 -0.000000 0.000000 25.000000 -0.000000 -16.606779 0.000000 -0.000000 -16.606779 0.000000 -0.000000 -16.606779 
0.000000 93.019646 0.000000 8.515331 0.000000 0.000000 0.000000 0.000000 0.000000 0.000000 0.000000 0.000000 0.000000 0.000000 0.000000 0.000000 0.000000 0.000000 0.000000 0.000000 0.000000 0.000000 0.000000 0.000000 0.000000 -0.000000 0.000000 0.000000 -0.000000 0.000000 0.000000 -0.000000 0.000000 0.000001 0.000000 -0.000000 -0.000001 -0.000000 0.000000 0.000000 -0.000000 0.000000 -0.000001 -0.000000 0.000000 -0.000004 0.000007 66.801407 -0.000000 -0.000000 0.000000 -0.000000 -0.000000 0.000000 21.860001 -0.000000 30.000000 -10.000000 -0.000000 0.000000 -10.000000 -0.000000 0.000000 0.000000 -0.000000 0.000000 2.550000 -0.000000 20.000000 0.000000 -0.000000 24.000000 0.000000 -0.000000 20.000000 0.000000 -0.000000 0.000000 0.000000 -0.000000 20.000000 0.000000 -0.000000 24.000000 0.000000 -0.000000 20.000000 0.000000 -0.000000 0.000000 -3.000000 -0.000000 20.000000 0.000000 -0.000000 24.000000 0.000000 -0.000000 20.000000 0.000000 -0.000000 0.000000 -8.830000 -0.000000 20.000000 0.000000 -0.000000 24.000000 0.000000 -0.000000 20.000000 -0.000001 -0.000000 0.000000 9.296724 4.075925 -57.481808 -77.140678 9.570962 9.399878 5.277820 6.501493 -2.236961 -50.388260 -0.000000 -28.658653 -9.531580 -0.000000 15.715415 59.561840 -0.000000 0.000000 0.000000 -0.000000 0.000000 -15.000000 -0.000000 -28.362078 0.000000 -0.000000 -28.362078 0.000000 -0.000000 -28.362078 0.000000 -0.000000 0.000000 0.000000 -0.000000 -9.712381 0.000000 -0.000000 -9.712381 0.000000 -0.000000 -9.712381 0.000000 -0.000000 0.000000 15.000000 -0.000000 -14.266579 0.000000 -0.000000 -14.266579 0.000000 -0.000000 -14.266579 0.000000 -0.000000 0.000000 25.000000 -0.000000 -16.604410 0.000000 -0.000000 -16.604410 0.000000 -0.000000 -16.604410 
